<?xml version="1.0" encoding="UTF-8"?>
<!DOCTYPE svg PUBLIC "-//W3C//DTD SVG 1.1//EN" "http://www.w3.org/Graphics/SVG/1.1/DTD/svg11.dtd">
<svg
  xmlns="http://www.w3.org/2000/svg"
  xmlns:xlink="http://www.w3.org/1999/xlink"
  version="1.1"
  style="display: none;"
>
  <defs>
    <symbol id="content-copy">
      <path d="M19,21H8V7H19M19,5H8A2,2 0 0,0 6,7V21A2,2 0 0,0 8,23H19A2,2 0 0,0 21,21V7A2,2 0 0,0 19,5M16,1H4A2,2 0 0,0 2,3V17H4V3H16V1Z" />
    </symbol>
    <symbol id="check-outline">
      <path d="M19.78,2.2L24,6.42L8.44,22L0,13.55L4.22,9.33L8.44,13.55L19.78,2.2M19.78,5L8.44,16.36L4.22,12.19L2.81,13.55L8.44,19.17L21.19,6.42L19.78,5Z" />
    </symbol>
  </defs>
</svg>
